<svg width="1024" height="512" viewBox="0 0 1024 512" fill="none" xmlns="http://www.w3.org/2000/svg">
<rect y="-0.000488281" width="1024" height="512" fill="#F2D3EE"/>
<path d="M200.949 199.105L195.075 273.099L187.018 275.243C188.355 272.737 190.101 270.487 192.257 268.493C194.337 266.375 196.729 264.49 199.431 262.836C204.071 259.659 208.954 257.431 214.08 256.151C219.13 254.749 224.216 254.507 229.336 255.425C234.504 256.146 239.362 258.153 243.91 261.447C248.581 264.666 252.796 269.347 256.554 275.488C261.665 283.84 264.295 292.276 264.443 300.795C264.517 309.191 262.412 317.063 258.13 324.411C253.97 331.683 247.898 337.762 239.915 342.648C234.265 346.106 228.184 348.307 221.672 349.253C215.085 350.076 208.846 349.674 202.954 348.046L203.05 337.858C207.706 339.398 212.922 339.92 218.697 339.425C224.396 338.807 229.641 337.033 234.431 334.101C240.818 330.193 245.642 325.384 248.901 319.676C252.208 313.769 253.734 307.433 253.477 300.669C253.22 293.904 251.1 287.267 247.116 280.757C241.855 272.159 235.08 267.019 226.792 265.338C218.504 263.657 209.938 265.523 201.095 270.934C197.656 273.039 194.688 275.362 192.191 277.903C189.694 280.443 187.702 282.844 186.215 285.104L185.14 285.003L191.118 214.491L195.449 214.119L145.336 244.786L140.149 236.311L200.949 199.105Z" fill="#D025FF"/>
<path d="M425.839 125.852L393.953 192.88L385.661 192.009C387.803 190.144 390.237 188.665 392.963 187.571C395.662 186.335 398.569 185.427 401.683 184.847C407.151 183.534 412.508 183.195 417.753 183.828C422.971 184.32 427.809 185.908 432.264 188.593C436.835 191.11 440.657 194.718 443.731 199.419C446.946 204.092 449.213 209.968 450.533 217.046C452.328 226.673 451.775 235.491 448.874 243.503C445.947 251.373 441.172 257.976 434.55 263.312C428.069 268.621 420.228 272.134 411.027 273.85C404.515 275.064 398.049 274.951 391.628 273.512C385.181 271.93 379.496 269.328 374.573 265.705L378.298 256.222C382.098 259.322 386.784 261.671 392.355 263.269C397.9 264.725 403.433 264.939 408.954 263.909C416.315 262.537 422.537 259.766 427.618 255.595C432.815 251.257 436.501 245.883 438.674 239.472C440.848 233.061 441.236 226.104 439.837 218.601C437.989 208.692 433.494 201.474 426.351 196.946C419.208 192.419 410.541 191.105 400.348 193.005C396.385 193.744 392.783 194.855 389.544 196.338C386.305 197.821 383.588 199.353 381.392 200.934L380.424 200.456L411.166 136.717L415.345 137.915L357.588 148.684L355.767 138.916L425.839 125.852Z" fill="#D025FF"/>
<path d="M600.088 271.477C593.572 270.282 587.619 268.018 582.228 264.687C576.862 261.214 572.49 257.117 569.11 252.398L576.423 246.053C579.057 250.05 582.529 253.469 586.839 256.309C591.175 259.008 595.822 260.812 600.779 261.722C608.003 263.047 614.521 262.633 620.333 260.478C626.171 258.182 630.987 254.673 634.781 249.953C638.602 245.09 641.096 239.472 642.266 233.099C643.487 226.442 643.445 220.285 642.141 214.629C640.862 208.831 638.101 203.932 633.857 199.933C629.613 195.933 623.667 193.232 616.018 191.828C610.636 190.841 605.536 190.71 600.718 191.437C595.9 192.163 591.428 193.393 587.304 195.125L587.092 195.086L599.721 126.251L663.032 137.867L661.239 147.639L607.063 137.7L598.137 186.352L596.866 183.703C599.959 182.806 603.624 182.381 607.861 182.426C612.125 182.33 616.168 182.633 619.992 183.334C629.199 185.023 636.483 188.409 641.846 193.493C647.209 198.576 650.767 204.719 652.52 211.921C654.273 219.124 654.409 226.762 652.927 234.835C651.42 243.05 648.202 250.219 643.272 256.342C638.342 262.465 632.101 266.956 624.549 269.816C617.164 272.561 609.011 273.114 600.088 271.477Z" fill="#D025FF"/>
<path d="M773.725 336.369C768.072 332.917 763.326 328.669 759.488 323.626C755.725 318.46 753.112 313.068 751.649 307.45L760.751 304.15C761.777 308.826 763.792 313.262 766.797 317.459C769.877 321.533 773.568 324.884 777.869 327.51C784.137 331.338 790.37 333.288 796.568 333.361C802.842 333.311 808.596 331.762 813.83 328.716C819.14 325.547 823.484 321.197 826.861 315.666C830.388 309.89 832.556 304.128 833.367 298.38C834.252 292.509 833.431 286.946 830.903 281.691C828.376 276.435 823.794 271.781 817.157 267.729C812.487 264.877 807.773 262.927 803.014 261.877C798.256 260.828 793.641 260.372 789.17 260.51L788.986 260.397L825.458 200.668L880.394 234.214L875.216 242.694L828.207 213.989L802.429 256.205L802.192 253.276C805.401 253.548 808.975 254.465 812.914 256.027C816.928 257.466 820.595 259.198 823.913 261.225C831.901 266.103 837.487 271.876 840.671 278.544C843.854 285.212 844.973 292.222 844.026 299.574C843.08 306.926 840.468 314.105 836.191 321.11C831.838 328.239 826.263 333.777 819.465 337.725C812.668 341.673 805.231 343.628 797.156 343.589C789.278 343.504 781.468 341.097 773.725 336.369Z" fill="#D025FF"/>
</svg>
