<svg width="80" height="80" viewBox="0 0 80 80" fill="none" xmlns="http://www.w3.org/2000/svg">
<path d="M53.7038 69.1667V58.7101H43.426V51.7391H53.7038V41.2825H60.5556V51.7391H70.8334V58.7101H60.5556V69.1667H53.7038ZM9.16675 58.7973V51.8262H16.0186V58.7973H9.16675ZM22.8705 58.7973V51.8262H36.8311C36.6598 53.0461 36.5879 54.208 36.6153 55.3117C36.645 56.4155 36.7455 57.5773 36.9167 58.7973H22.8705ZM9.16675 44.8552V37.8841H16.0186V44.8552H9.16675ZM22.8705 44.8552V37.8841H45.6529C44.3396 38.8136 43.1554 39.8593 42.1002 41.0211C41.0427 42.1829 40.1143 43.461 39.3149 44.8552H22.8705ZM9.16675 30.9131V23.9421H16.0186V30.9131H9.16675ZM22.8705 30.9131V23.9421H63.9816V30.9131H22.8705ZM9.16675 16.971V10H16.0186V16.971H9.16675ZM22.8705 16.971V10H63.9816V16.971H22.8705Z" fill="#65558F"/>
</svg>
