<svg width="285" height="56" viewBox="0 0 285 56" fill="none" xmlns="http://www.w3.org/2000/svg">
<g clip-path="url(#clip0_120_3659)">
<rect width="285" height="56" rx="16" fill="#ECE6F0"/>
<path d="M27 33H29V29H33V27H29V23H27V27H23V29H27V33ZM28 38C26.6167 38 25.3167 37.7417 24.1 37.225C22.8833 36.6917 21.825 35.975 20.925 35.075C20.025 34.175 19.3083 33.1167 18.775 31.9C18.2583 30.6833 18 29.3833 18 28C18 26.6167 18.2583 25.3167 18.775 24.1C19.3083 22.8833 20.025 21.825 20.925 20.925C21.825 20.025 22.8833 19.3167 24.1 18.8C25.3167 18.2667 26.6167 18 28 18C29.3833 18 30.6833 18.2667 31.9 18.8C33.1167 19.3167 34.175 20.025 35.075 20.925C35.975 21.825 36.6833 22.8833 37.2 24.1C37.7333 25.3167 38 26.6167 38 28C38 29.3833 37.7333 30.6833 37.2 31.9C36.6833 33.1167 35.975 34.175 35.075 35.075C34.175 35.975 33.1167 36.6917 31.9 37.225C30.6833 37.7417 29.3833 38 28 38ZM28 36C30.2333 36 32.125 35.225 33.675 33.675C35.225 32.125 36 30.2333 36 28C36 25.7667 35.225 23.875 33.675 22.325C32.125 20.775 30.2333 20 28 20C25.7667 20 23.875 20.775 22.325 22.325C20.775 23.875 20 25.7667 20 28C20 30.2333 20.775 32.125 22.325 33.675C23.875 35.225 25.7667 36 28 36Z" fill="#65558F"/>
<path d="M59.2871 29.7598H60.9961C60.9414 30.4115 60.7591 30.9925 60.4492 31.5029C60.1393 32.0088 59.7041 32.4076 59.1436 32.6992C58.583 32.9909 57.9017 33.1367 57.0996 33.1367C56.4844 33.1367 55.9307 33.0273 55.4385 32.8086C54.9463 32.5853 54.5247 32.2708 54.1738 31.8652C53.8229 31.4551 53.554 30.9606 53.3672 30.3818C53.1849 29.8031 53.0938 29.1559 53.0938 28.4404V27.6133C53.0938 26.8978 53.1872 26.2507 53.374 25.6719C53.5654 25.0931 53.8389 24.5986 54.1943 24.1885C54.5498 23.7738 54.9759 23.457 55.4727 23.2383C55.974 23.0195 56.5368 22.9102 57.1611 22.9102C57.9541 22.9102 58.624 23.056 59.1709 23.3477C59.7178 23.6393 60.1416 24.0426 60.4424 24.5576C60.7477 25.0726 60.9346 25.6628 61.0029 26.3281H59.2939C59.2484 25.8997 59.1481 25.5329 58.9932 25.2275C58.8428 24.9222 58.6195 24.6898 58.3232 24.5303C58.027 24.3662 57.6396 24.2842 57.1611 24.2842C56.7692 24.2842 56.4274 24.3571 56.1357 24.5029C55.8441 24.6488 55.6003 24.863 55.4043 25.1455C55.2083 25.4281 55.0602 25.7767 54.96 26.1914C54.8643 26.6016 54.8164 27.071 54.8164 27.5996V28.4404C54.8164 28.9417 54.8597 29.3975 54.9463 29.8076C55.0374 30.2132 55.1742 30.5618 55.3564 30.8535C55.5433 31.1452 55.7803 31.3708 56.0674 31.5303C56.3545 31.6898 56.6986 31.7695 57.0996 31.7695C57.5872 31.7695 57.9814 31.6921 58.2822 31.5371C58.5876 31.3822 58.8177 31.1566 58.9727 30.8604C59.1322 30.5596 59.237 30.1927 59.2871 29.7598ZM62.1762 29.3838V29.2266C62.1762 28.6934 62.2536 28.1989 62.4086 27.7432C62.5635 27.2829 62.7868 26.8841 63.0785 26.5469C63.3747 26.2051 63.7348 25.9408 64.1586 25.7539C64.587 25.5625 65.0701 25.4668 65.6078 25.4668C66.1501 25.4668 66.6332 25.5625 67.057 25.7539C67.4854 25.9408 67.8477 26.2051 68.1439 26.5469C68.4402 26.8841 68.6658 27.2829 68.8207 27.7432C68.9757 28.1989 69.0531 28.6934 69.0531 29.2266V29.3838C69.0531 29.917 68.9757 30.4115 68.8207 30.8672C68.6658 31.3229 68.4402 31.7217 68.1439 32.0635C67.8477 32.4007 67.4877 32.665 67.0639 32.8564C66.64 33.0433 66.1592 33.1367 65.6215 33.1367C65.0792 33.1367 64.5938 33.0433 64.1654 32.8564C63.7416 32.665 63.3816 32.4007 63.0854 32.0635C62.7891 31.7217 62.5635 31.3229 62.4086 30.8672C62.2536 30.4115 62.1762 29.917 62.1762 29.3838ZM63.8236 29.2266V29.3838C63.8236 29.7165 63.8578 30.0309 63.9262 30.3271C63.9945 30.6234 64.1016 30.8831 64.2475 31.1064C64.3933 31.3298 64.5801 31.5052 64.808 31.6328C65.0359 31.7604 65.307 31.8242 65.6215 31.8242C65.9268 31.8242 66.1911 31.7604 66.4145 31.6328C66.6423 31.5052 66.8292 31.3298 66.975 31.1064C67.1208 30.8831 67.2279 30.6234 67.2963 30.3271C67.3692 30.0309 67.4057 29.7165 67.4057 29.3838V29.2266C67.4057 28.8984 67.3692 28.5885 67.2963 28.2969C67.2279 28.0007 67.1186 27.7386 66.9682 27.5107C66.8223 27.2829 66.6355 27.1051 66.4076 26.9775C66.1843 26.8454 65.9177 26.7793 65.6078 26.7793C65.2979 26.7793 65.029 26.8454 64.8012 26.9775C64.5779 27.1051 64.3933 27.2829 64.2475 27.5107C64.1016 27.7386 63.9945 28.0007 63.9262 28.2969C63.8578 28.5885 63.8236 28.8984 63.8236 29.2266ZM72.1678 27.1826V33H70.5203V25.6035H72.0721L72.1678 27.1826ZM71.8738 29.0283L71.3406 29.0215C71.3452 28.4974 71.4181 28.0166 71.5594 27.5791C71.7052 27.1416 71.9057 26.7656 72.1609 26.4512C72.4207 26.1367 72.7306 25.8952 73.0906 25.7266C73.4507 25.5534 73.8517 25.4668 74.2938 25.4668C74.6492 25.4668 74.9705 25.5169 75.2576 25.6172C75.5493 25.7129 75.7977 25.8701 76.0027 26.0889C76.2124 26.3076 76.3719 26.5924 76.4813 26.9434C76.5906 27.2897 76.6453 27.7158 76.6453 28.2217V33H74.991V28.2148C74.991 27.8594 74.9386 27.5791 74.8338 27.374C74.7335 27.1644 74.5854 27.0163 74.3895 26.9297C74.198 26.8385 73.9588 26.793 73.6717 26.793C73.3891 26.793 73.1362 26.8522 72.9129 26.9707C72.6896 27.0892 72.5005 27.251 72.3455 27.4561C72.1951 27.6611 72.0789 27.8981 71.9969 28.167C71.9148 28.4359 71.8738 28.723 71.8738 29.0283ZM80.5461 33H78.8918V25.125C78.8918 24.528 79.0103 24.0244 79.2473 23.6143C79.4888 23.2041 79.8329 22.8919 80.2795 22.6777C80.7307 22.4635 81.2661 22.3564 81.8859 22.3564C82.2505 22.3564 82.6014 22.3952 82.9387 22.4727C83.2805 22.5501 83.6337 22.6481 83.9982 22.7666L83.7453 24.1064C83.5129 24.029 83.2554 23.9561 82.9729 23.8877C82.6903 23.8148 82.3645 23.7783 81.9953 23.7783C81.4986 23.7783 81.1317 23.8923 80.8947 24.1201C80.6623 24.3434 80.5461 24.6784 80.5461 25.125V33ZM82.0295 25.6035V26.8066H77.757V25.6035H82.0295ZM84.7775 25.6035V33H83.1301V25.6035H84.7775ZM88.3707 27.0117V33H86.7232V25.6035H88.2955L88.3707 27.0117ZM90.6334 25.5557L90.6197 27.0869C90.5195 27.0687 90.4101 27.055 90.2916 27.0459C90.1777 27.0368 90.0637 27.0322 89.9498 27.0322C89.6673 27.0322 89.4189 27.0732 89.2047 27.1553C88.9905 27.2327 88.8105 27.3467 88.6646 27.4971C88.5234 27.6429 88.414 27.8206 88.3365 28.0303C88.2591 28.2399 88.2135 28.4746 88.1998 28.7344L87.8238 28.7617C87.8238 28.2969 87.8694 27.8662 87.9605 27.4697C88.0517 27.0732 88.1884 26.7246 88.3707 26.4238C88.5576 26.123 88.79 25.8883 89.068 25.7197C89.3505 25.5511 89.6764 25.4668 90.0455 25.4668C90.1458 25.4668 90.2529 25.4759 90.3668 25.4941C90.4853 25.5124 90.5742 25.5329 90.6334 25.5557ZM93.4131 27.1074V33H91.7656V25.6035H93.3174L93.4131 27.1074ZM93.1465 29.0283L92.5859 29.0215C92.5859 28.5111 92.6497 28.0394 92.7773 27.6064C92.9049 27.1735 93.0918 26.7975 93.3379 26.4785C93.584 26.1549 93.8893 25.9066 94.2539 25.7334C94.623 25.5557 95.0492 25.4668 95.5322 25.4668C95.8695 25.4668 96.1771 25.5169 96.4551 25.6172C96.7376 25.7129 96.9814 25.8656 97.1865 26.0752C97.3962 26.2848 97.5557 26.5537 97.665 26.8818C97.779 27.21 97.8359 27.6064 97.8359 28.0713V33H96.1885V28.2148C96.1885 27.8548 96.1338 27.5723 96.0244 27.3672C95.9196 27.1621 95.7669 27.0163 95.5664 26.9297C95.3704 26.8385 95.1357 26.793 94.8623 26.793C94.5524 26.793 94.2881 26.8522 94.0693 26.9707C93.8551 27.0892 93.6797 27.251 93.543 27.4561C93.4062 27.6611 93.306 27.8981 93.2422 28.167C93.1784 28.4359 93.1465 28.723 93.1465 29.0283ZM97.7334 28.5908L96.9609 28.7617C96.9609 28.3151 97.0225 27.8936 97.1455 27.4971C97.2731 27.096 97.4577 26.7451 97.6992 26.4443C97.9453 26.139 98.2484 25.8997 98.6084 25.7266C98.9684 25.5534 99.3809 25.4668 99.8457 25.4668C100.224 25.4668 100.561 25.5192 100.857 25.624C101.158 25.7243 101.413 25.8838 101.623 26.1025C101.833 26.3213 101.992 26.6061 102.102 26.957C102.211 27.3034 102.266 27.7227 102.266 28.2148V33H100.611V28.208C100.611 27.8343 100.557 27.5449 100.447 27.3398C100.342 27.1348 100.192 26.9935 99.9961 26.916C99.8001 26.834 99.5654 26.793 99.292 26.793C99.0368 26.793 98.8112 26.8408 98.6152 26.9365C98.4238 27.0277 98.262 27.1576 98.1299 27.3262C97.9977 27.4902 97.8975 27.6794 97.8291 27.8936C97.7653 28.1077 97.7334 28.3402 97.7334 28.5908ZM111.817 31.5166V27.9893C111.817 27.7249 111.769 27.4971 111.674 27.3057C111.578 27.1143 111.432 26.9661 111.236 26.8613C111.045 26.7565 110.803 26.7041 110.512 26.7041C110.243 26.7041 110.01 26.7497 109.814 26.8408C109.618 26.932 109.466 27.055 109.356 27.21C109.247 27.3649 109.192 27.5404 109.192 27.7363H107.552C107.552 27.4447 107.622 27.1621 107.763 26.8887C107.905 26.6152 108.11 26.3714 108.379 26.1572C108.648 25.943 108.969 25.7744 109.343 25.6514C109.716 25.5283 110.136 25.4668 110.6 25.4668C111.156 25.4668 111.649 25.5602 112.077 25.7471C112.51 25.9339 112.849 26.2165 113.096 26.5947C113.346 26.9684 113.471 27.4378 113.471 28.0029V31.291C113.471 31.6283 113.494 31.9313 113.54 32.2002C113.59 32.4645 113.661 32.6947 113.752 32.8906V33H112.063C111.986 32.8223 111.924 32.5967 111.879 32.3232C111.838 32.0452 111.817 31.7764 111.817 31.5166ZM112.056 28.502L112.07 29.5205H110.888C110.582 29.5205 110.313 29.5501 110.081 29.6094C109.848 29.6641 109.655 29.7461 109.5 29.8555C109.345 29.9648 109.229 30.097 109.151 30.252C109.074 30.4069 109.035 30.5824 109.035 30.7783C109.035 30.9743 109.081 31.1543 109.172 31.3184C109.263 31.4779 109.395 31.6032 109.568 31.6943C109.746 31.7855 109.96 31.8311 110.211 31.8311C110.548 31.8311 110.842 31.7627 111.093 31.626C111.348 31.4847 111.548 31.3138 111.694 31.1133C111.84 30.9082 111.917 30.7145 111.927 30.5322L112.46 31.2637C112.405 31.4505 112.312 31.651 112.179 31.8652C112.047 32.0794 111.874 32.2845 111.66 32.4805C111.45 32.6719 111.197 32.8291 110.901 32.9521C110.61 33.0752 110.272 33.1367 109.889 33.1367C109.406 33.1367 108.976 33.041 108.597 32.8496C108.219 32.6536 107.923 32.3916 107.709 32.0635C107.495 31.7308 107.388 31.3548 107.388 30.9355C107.388 30.5436 107.46 30.1973 107.606 29.8965C107.757 29.5911 107.975 29.3359 108.263 29.1309C108.554 28.9258 108.91 28.7708 109.329 28.666C109.748 28.5566 110.227 28.502 110.764 28.502H112.056ZM116.928 27.1826V33H115.28V25.6035H116.832L116.928 27.1826ZM116.634 29.0283L116.101 29.0215C116.105 28.4974 116.178 28.0166 116.32 27.5791C116.465 27.1416 116.666 26.7656 116.921 26.4512C117.181 26.1367 117.491 25.8952 117.851 25.7266C118.211 25.5534 118.612 25.4668 119.054 25.4668C119.409 25.4668 119.731 25.5169 120.018 25.6172C120.309 25.7129 120.558 25.8701 120.763 26.0889C120.973 26.3076 121.132 26.5924 121.241 26.9434C121.351 27.2897 121.405 27.7158 121.405 28.2217V33H119.751V28.2148C119.751 27.8594 119.699 27.5791 119.594 27.374C119.494 27.1644 119.346 27.0163 119.15 26.9297C118.958 26.8385 118.719 26.793 118.432 26.793C118.149 26.793 117.896 26.8522 117.673 26.9707C117.45 27.0892 117.261 27.251 117.106 27.4561C116.955 27.6611 116.839 27.8981 116.757 28.167C116.675 28.4359 116.634 28.723 116.634 29.0283ZM127.699 31.4688V22.5H129.353V33H127.856L127.699 31.4688ZM122.886 29.3838V29.2402C122.886 28.6797 122.952 28.1693 123.085 27.709C123.217 27.2441 123.408 26.8454 123.659 26.5127C123.909 26.1755 124.215 25.918 124.575 25.7402C124.935 25.5579 125.34 25.4668 125.792 25.4668C126.238 25.4668 126.63 25.5534 126.967 25.7266C127.305 25.8997 127.592 26.1481 127.829 26.4717C128.066 26.7907 128.255 27.1735 128.396 27.6201C128.537 28.0622 128.638 28.5544 128.697 29.0967V29.5547C128.638 30.0833 128.537 30.5664 128.396 31.0039C128.255 31.4414 128.066 31.8197 127.829 32.1387C127.592 32.4577 127.302 32.7038 126.961 32.877C126.623 33.0501 126.229 33.1367 125.778 33.1367C125.331 33.1367 124.928 33.0433 124.568 32.8564C124.213 32.6696 123.909 32.4076 123.659 32.0703C123.408 31.7331 123.217 31.3366 123.085 30.8809C122.952 30.4206 122.886 29.9215 122.886 29.3838ZM124.534 29.2402V29.3838C124.534 29.721 124.563 30.0355 124.623 30.3271C124.686 30.6188 124.784 30.8763 124.917 31.0996C125.049 31.3184 125.22 31.4915 125.429 31.6191C125.643 31.7422 125.899 31.8037 126.195 31.8037C126.569 31.8037 126.876 31.7217 127.118 31.5576C127.359 31.3936 127.548 31.1725 127.685 30.8945C127.826 30.612 127.922 30.2975 127.972 29.9512V28.7139C127.945 28.445 127.888 28.1943 127.801 27.9619C127.719 27.7295 127.608 27.5267 127.466 27.3535C127.325 27.1758 127.15 27.0391 126.94 26.9434C126.735 26.8431 126.491 26.793 126.209 26.793C125.908 26.793 125.653 26.8568 125.443 26.9844C125.233 27.112 125.06 27.2874 124.923 27.5107C124.791 27.734 124.693 27.9938 124.629 28.29C124.566 28.5863 124.534 28.903 124.534 29.2402ZM138.802 24.373L135.829 33H134.031L137.777 23.0469H138.925L138.802 24.373ZM141.29 33L138.31 24.373L138.18 23.0469H139.335L143.095 33H141.29ZM141.147 29.3086V30.6689H135.733V29.3086H141.147ZM148.657 31.4688V22.5H150.311V33H148.814L148.657 31.4688ZM143.845 29.3838V29.2402C143.845 28.6797 143.911 28.1693 144.043 27.709C144.175 27.2441 144.366 26.8454 144.617 26.5127C144.868 26.1755 145.173 25.918 145.533 25.7402C145.893 25.5579 146.299 25.4668 146.75 25.4668C147.196 25.4668 147.588 25.5534 147.926 25.7266C148.263 25.8997 148.55 26.1481 148.787 26.4717C149.024 26.7907 149.213 27.1735 149.354 27.6201C149.496 28.0622 149.596 28.5544 149.655 29.0967V29.5547C149.596 30.0833 149.496 30.5664 149.354 31.0039C149.213 31.4414 149.024 31.8197 148.787 32.1387C148.55 32.4577 148.261 32.7038 147.919 32.877C147.582 33.0501 147.187 33.1367 146.736 33.1367C146.29 33.1367 145.886 33.0433 145.526 32.8564C145.171 32.6696 144.868 32.4076 144.617 32.0703C144.366 31.7331 144.175 31.3366 144.043 30.8809C143.911 30.4206 143.845 29.9215 143.845 29.3838ZM145.492 29.2402V29.3838C145.492 29.721 145.522 30.0355 145.581 30.3271C145.645 30.6188 145.743 30.8763 145.875 31.0996C146.007 31.3184 146.178 31.4915 146.387 31.6191C146.602 31.7422 146.857 31.8037 147.153 31.8037C147.527 31.8037 147.834 31.7217 148.076 31.5576C148.318 31.3936 148.507 31.1725 148.643 30.8945C148.785 30.612 148.88 30.2975 148.93 29.9512V28.7139C148.903 28.445 148.846 28.1943 148.76 27.9619C148.678 27.7295 148.566 27.5267 148.425 27.3535C148.283 27.1758 148.108 27.0391 147.898 26.9434C147.693 26.8431 147.449 26.793 147.167 26.793C146.866 26.793 146.611 26.8568 146.401 26.9844C146.192 27.112 146.018 27.2874 145.882 27.5107C145.749 27.734 145.651 27.9938 145.588 28.29C145.524 28.5863 145.492 28.903 145.492 29.2402ZM156.646 31.4688V22.5H158.3V33H156.803L156.646 31.4688ZM151.833 29.3838V29.2402C151.833 28.6797 151.899 28.1693 152.031 27.709C152.164 27.2441 152.355 26.8454 152.606 26.5127C152.856 26.1755 153.162 25.918 153.522 25.7402C153.882 25.5579 154.287 25.4668 154.738 25.4668C155.185 25.4668 155.577 25.5534 155.914 25.7266C156.252 25.8997 156.539 26.1481 156.776 26.4717C157.013 26.7907 157.202 27.1735 157.343 27.6201C157.484 28.0622 157.585 28.5544 157.644 29.0967V29.5547C157.585 30.0833 157.484 30.5664 157.343 31.0039C157.202 31.4414 157.013 31.8197 156.776 32.1387C156.539 32.4577 156.249 32.7038 155.907 32.877C155.57 33.0501 155.176 33.1367 154.725 33.1367C154.278 33.1367 153.875 33.0433 153.515 32.8564C153.159 32.6696 152.856 32.4076 152.606 32.0703C152.355 31.7331 152.164 31.3366 152.031 30.8809C151.899 30.4206 151.833 29.9215 151.833 29.3838ZM153.481 29.2402V29.3838C153.481 29.721 153.51 30.0355 153.57 30.3271C153.633 30.6188 153.731 30.8763 153.863 31.0996C153.996 31.3184 154.167 31.4915 154.376 31.6191C154.59 31.7422 154.846 31.8037 155.142 31.8037C155.515 31.8037 155.823 31.7217 156.065 31.5576C156.306 31.3936 156.495 31.1725 156.632 30.8945C156.773 30.612 156.869 30.2975 156.919 29.9512V28.7139C156.892 28.445 156.835 28.1943 156.748 27.9619C156.666 27.7295 156.555 27.5267 156.413 27.3535C156.272 27.1758 156.097 27.0391 155.887 26.9434C155.682 26.8431 155.438 26.793 155.155 26.793C154.855 26.793 154.599 26.8568 154.39 26.9844C154.18 27.112 154.007 27.2874 153.87 27.5107C153.738 27.734 153.64 27.9938 153.576 28.29C153.513 28.5863 153.481 28.903 153.481 29.2402ZM167.1 25.6035V26.8066H162.93V25.6035H167.1ZM164.133 23.792H165.78V30.9561C165.78 31.1839 165.812 31.3594 165.876 31.4824C165.944 31.6009 166.038 31.6807 166.156 31.7217C166.275 31.7627 166.414 31.7832 166.573 31.7832C166.687 31.7832 166.797 31.7764 166.901 31.7627C167.006 31.749 167.09 31.7354 167.154 31.7217L167.161 32.9795C167.024 33.0205 166.865 33.057 166.683 33.0889C166.505 33.1208 166.3 33.1367 166.067 33.1367C165.689 33.1367 165.354 33.0706 165.062 32.9385C164.771 32.8018 164.543 32.5807 164.379 32.2754C164.215 31.9701 164.133 31.5645 164.133 31.0586V23.792ZM167.993 29.3838V29.2266C167.993 28.6934 168.07 28.1989 168.225 27.7432C168.38 27.2829 168.603 26.8841 168.895 26.5469C169.191 26.2051 169.551 25.9408 169.975 25.7539C170.403 25.5625 170.886 25.4668 171.424 25.4668C171.967 25.4668 172.45 25.5625 172.873 25.7539C173.302 25.9408 173.664 26.2051 173.96 26.5469C174.257 26.8841 174.482 27.2829 174.637 27.7432C174.792 28.1989 174.87 28.6934 174.87 29.2266V29.3838C174.87 29.917 174.792 30.4115 174.637 30.8672C174.482 31.3229 174.257 31.7217 173.96 32.0635C173.664 32.4007 173.304 32.665 172.88 32.8564C172.456 33.0433 171.976 33.1367 171.438 33.1367C170.896 33.1367 170.41 33.0433 169.982 32.8564C169.558 32.665 169.198 32.4007 168.902 32.0635C168.606 31.7217 168.38 31.3229 168.225 30.8672C168.07 30.4115 167.993 29.917 167.993 29.3838ZM169.64 29.2266V29.3838C169.64 29.7165 169.674 30.0309 169.743 30.3271C169.811 30.6234 169.918 30.8831 170.064 31.1064C170.21 31.3298 170.397 31.5052 170.624 31.6328C170.852 31.7604 171.123 31.8242 171.438 31.8242C171.743 31.8242 172.008 31.7604 172.231 31.6328C172.459 31.5052 172.646 31.3298 172.791 31.1064C172.937 30.8831 173.044 30.6234 173.113 30.3271C173.186 30.0309 173.222 29.7165 173.222 29.3838V29.2266C173.222 28.8984 173.186 28.5885 173.113 28.2969C173.044 28.0007 172.935 27.7386 172.785 27.5107C172.639 27.2829 172.452 27.1051 172.224 26.9775C172.001 26.8454 171.734 26.7793 171.424 26.7793C171.114 26.7793 170.845 26.8454 170.618 26.9775C170.394 27.1051 170.21 27.2829 170.064 27.5107C169.918 27.7386 169.811 28.0007 169.743 28.2969C169.674 28.5885 169.64 28.8984 169.64 29.2266ZM185.337 30.4365C185.337 30.2314 185.305 30.0492 185.241 29.8896C185.182 29.7301 185.075 29.5843 184.92 29.4521C184.765 29.32 184.546 29.1924 184.264 29.0693C183.986 28.9417 183.63 28.8118 183.197 28.6797C182.724 28.5339 182.286 28.3721 181.885 28.1943C181.488 28.012 181.142 27.8024 180.846 27.5654C180.55 27.3239 180.32 27.0482 180.155 26.7383C179.991 26.4238 179.909 26.0615 179.909 25.6514C179.909 25.2458 179.994 24.8766 180.162 24.5439C180.335 24.2113 180.579 23.9242 180.894 23.6826C181.213 23.4365 181.589 23.2474 182.022 23.1152C182.455 22.9785 182.933 22.9102 183.457 22.9102C184.196 22.9102 184.831 23.0469 185.364 23.3203C185.902 23.5938 186.315 23.9606 186.602 24.4209C186.893 24.8812 187.039 25.3893 187.039 25.9453H185.337C185.337 25.6172 185.266 25.3278 185.125 25.0771C184.988 24.8219 184.779 24.6214 184.496 24.4756C184.218 24.3298 183.865 24.2568 183.437 24.2568C183.031 24.2568 182.694 24.3184 182.425 24.4414C182.156 24.5645 181.956 24.7308 181.823 24.9404C181.691 25.1501 181.625 25.387 181.625 25.6514C181.625 25.8382 181.668 26.0091 181.755 26.1641C181.842 26.3145 181.974 26.4557 182.152 26.5879C182.329 26.7155 182.553 26.8363 182.821 26.9502C183.09 27.0641 183.407 27.1735 183.772 27.2783C184.323 27.4424 184.804 27.6247 185.214 27.8252C185.624 28.0212 185.966 28.2445 186.239 28.4951C186.513 28.7458 186.718 29.0306 186.855 29.3496C186.991 29.6641 187.06 30.0218 187.06 30.4229C187.06 30.8421 186.975 31.2204 186.807 31.5576C186.638 31.8903 186.397 32.1751 186.082 32.4121C185.772 32.6445 185.399 32.8245 184.961 32.9521C184.528 33.0752 184.045 33.1367 183.512 33.1367C183.033 33.1367 182.562 33.0729 182.097 32.9453C181.637 32.8177 181.217 32.624 180.839 32.3643C180.461 32.0999 180.16 31.7718 179.937 31.3799C179.713 30.9834 179.602 30.5208 179.602 29.9922H181.318C181.318 30.3158 181.372 30.5915 181.482 30.8193C181.596 31.0472 181.753 31.234 181.953 31.3799C182.154 31.5212 182.386 31.626 182.651 31.6943C182.919 31.7627 183.207 31.7969 183.512 31.7969C183.913 31.7969 184.248 31.7399 184.517 31.626C184.79 31.512 184.995 31.3525 185.132 31.1475C185.269 30.9424 185.337 30.7054 185.337 30.4365ZM191.535 31.8242C191.804 31.8242 192.045 31.7718 192.259 31.667C192.478 31.5576 192.654 31.4072 192.786 31.2158C192.922 31.0244 192.998 30.8034 193.011 30.5527H194.563C194.554 31.0312 194.413 31.4665 194.139 31.8584C193.866 32.2503 193.504 32.5625 193.052 32.7949C192.601 33.0228 192.102 33.1367 191.555 33.1367C190.99 33.1367 190.498 33.041 190.079 32.8496C189.659 32.6536 189.311 32.3848 189.033 32.043C188.755 31.7012 188.545 31.307 188.404 30.8604C188.267 30.4137 188.199 29.9352 188.199 29.4248V29.1855C188.199 28.6751 188.267 28.1966 188.404 27.75C188.545 27.2988 188.755 26.9023 189.033 26.5605C189.311 26.2188 189.659 25.9521 190.079 25.7607C190.498 25.5648 190.988 25.4668 191.548 25.4668C192.141 25.4668 192.66 25.5853 193.107 25.8223C193.554 26.0547 193.905 26.3805 194.16 26.7998C194.42 27.2145 194.554 27.6976 194.563 28.249H193.011C192.998 27.9756 192.929 27.7295 192.806 27.5107C192.688 27.2874 192.519 27.1097 192.3 26.9775C192.086 26.8454 191.829 26.7793 191.528 26.7793C191.195 26.7793 190.92 26.8477 190.701 26.9844C190.482 27.1165 190.311 27.2988 190.188 27.5312C190.065 27.7591 189.976 28.0166 189.921 28.3037C189.871 28.5863 189.846 28.8802 189.846 29.1855V29.4248C189.846 29.7301 189.871 30.0264 189.921 30.3135C189.972 30.6006 190.058 30.8581 190.181 31.0859C190.309 31.3092 190.482 31.4893 190.701 31.626C190.92 31.7581 191.198 31.8242 191.535 31.8242ZM197.555 22.5V33H195.914V22.5H197.555ZM197.268 29.0283L196.734 29.0215C196.739 28.5111 196.81 28.0394 196.946 27.6064C197.088 27.1735 197.284 26.7975 197.534 26.4785C197.789 26.1549 198.095 25.9066 198.45 25.7334C198.806 25.5557 199.2 25.4668 199.633 25.4668C199.997 25.4668 200.326 25.5169 200.617 25.6172C200.913 25.7174 201.169 25.8792 201.383 26.1025C201.597 26.3213 201.759 26.6084 201.868 26.9639C201.982 27.3148 202.039 27.7432 202.039 28.249V33H200.385V28.2354C200.385 27.8799 200.332 27.5973 200.228 27.3877C200.127 27.1781 199.979 27.0277 199.783 26.9365C199.587 26.8408 199.348 26.793 199.065 26.793C198.769 26.793 198.507 26.8522 198.279 26.9707C198.056 27.0892 197.869 27.251 197.719 27.4561C197.568 27.6611 197.454 27.8981 197.377 28.167C197.304 28.4359 197.268 28.723 197.268 29.0283ZM207.068 33.1367C206.521 33.1367 206.026 33.0479 205.584 32.8701C205.147 32.6878 204.773 32.4349 204.463 32.1113C204.158 31.7878 203.923 31.4072 203.759 30.9697C203.595 30.5322 203.513 30.0605 203.513 29.5547V29.2812C203.513 28.7025 203.597 28.1784 203.766 27.709C203.935 27.2396 204.169 26.8385 204.47 26.5059C204.771 26.1686 205.126 25.9111 205.537 25.7334C205.947 25.5557 206.391 25.4668 206.87 25.4668C207.398 25.4668 207.861 25.5557 208.257 25.7334C208.654 25.9111 208.982 26.1618 209.242 26.4854C209.506 26.8044 209.702 27.1849 209.829 27.627C209.962 28.069 210.028 28.5566 210.028 29.0898V29.7939H204.313V28.6113H208.401V28.4814C208.392 28.1852 208.332 27.9072 208.223 27.6475C208.118 27.3877 207.956 27.1781 207.738 27.0186C207.519 26.859 207.227 26.7793 206.863 26.7793C206.589 26.7793 206.345 26.8385 206.131 26.957C205.922 27.071 205.746 27.2373 205.605 27.4561C205.464 27.6748 205.354 27.9391 205.277 28.249C205.204 28.5544 205.167 28.8984 205.167 29.2812V29.5547C205.167 29.8783 205.211 30.179 205.297 30.457C205.388 30.7305 205.521 30.9697 205.694 31.1748C205.867 31.3799 206.077 31.5417 206.323 31.6602C206.569 31.7741 206.849 31.8311 207.163 31.8311C207.56 31.8311 207.913 31.7513 208.223 31.5918C208.533 31.4323 208.802 31.2067 209.03 30.915L209.898 31.7559C209.738 31.9883 209.531 32.2116 209.276 32.4258C209.021 32.6354 208.708 32.8063 208.339 32.9385C207.975 33.0706 207.551 33.1367 207.068 33.1367ZM215.925 31.4688V22.5H217.579V33H216.082L215.925 31.4688ZM211.112 29.3838V29.2402C211.112 28.6797 211.178 28.1693 211.31 27.709C211.443 27.2441 211.634 26.8454 211.885 26.5127C212.135 26.1755 212.441 25.918 212.801 25.7402C213.161 25.5579 213.566 25.4668 214.017 25.4668C214.464 25.4668 214.856 25.5534 215.193 25.7266C215.53 25.8997 215.818 26.1481 216.054 26.4717C216.291 26.7907 216.481 27.1735 216.622 27.6201C216.763 28.0622 216.863 28.5544 216.923 29.0967V29.5547C216.863 30.0833 216.763 30.5664 216.622 31.0039C216.481 31.4414 216.291 31.8197 216.054 32.1387C215.818 32.4577 215.528 32.7038 215.186 32.877C214.849 33.0501 214.455 33.1367 214.004 33.1367C213.557 33.1367 213.154 33.0433 212.794 32.8564C212.438 32.6696 212.135 32.4076 211.885 32.0703C211.634 31.7331 211.443 31.3366 211.31 30.8809C211.178 30.4206 211.112 29.9215 211.112 29.3838ZM212.76 29.2402V29.3838C212.76 29.721 212.789 30.0355 212.848 30.3271C212.912 30.6188 213.01 30.8763 213.142 31.0996C213.275 31.3184 213.445 31.4915 213.655 31.6191C213.869 31.7422 214.124 31.8037 214.421 31.8037C214.794 31.8037 215.102 31.7217 215.344 31.5576C215.585 31.3936 215.774 31.1725 215.911 30.8945C216.052 30.612 216.148 30.2975 216.198 29.9512V28.7139C216.171 28.445 216.114 28.1943 216.027 27.9619C215.945 27.7295 215.833 27.5267 215.692 27.3535C215.551 27.1758 215.375 27.0391 215.166 26.9434C214.961 26.8431 214.717 26.793 214.434 26.793C214.134 26.793 213.878 26.8568 213.669 26.9844C213.459 27.112 213.286 27.2874 213.149 27.5107C213.017 27.734 212.919 27.9938 212.855 28.29C212.791 28.5863 212.76 28.903 212.76 29.2402ZM223.852 31.2568V25.6035H225.506V33H223.947L223.852 31.2568ZM224.084 29.7188L224.638 29.7051C224.638 30.2018 224.583 30.6598 224.474 31.0791C224.364 31.4938 224.196 31.8561 223.968 32.166C223.74 32.4714 223.448 32.7106 223.093 32.8838C222.738 33.0524 222.311 33.1367 221.815 33.1367C221.455 33.1367 221.124 33.0843 220.823 32.9795C220.523 32.8747 220.263 32.7129 220.044 32.4941C219.83 32.2754 219.664 31.9906 219.545 31.6396C219.427 31.2887 219.367 30.8695 219.367 30.3818V25.6035H221.015V30.3955C221.015 30.6644 221.047 30.89 221.111 31.0723C221.174 31.25 221.261 31.3936 221.37 31.5029C221.48 31.6123 221.607 31.6898 221.753 31.7354C221.899 31.7809 222.054 31.8037 222.218 31.8037C222.687 31.8037 223.057 31.7126 223.325 31.5303C223.599 31.3434 223.793 31.0928 223.906 30.7783C224.025 30.4639 224.084 30.1107 224.084 29.7188ZM229.058 22.5V33H227.404V22.5H229.058ZM234.224 33.1367C233.677 33.1367 233.182 33.0479 232.74 32.8701C232.303 32.6878 231.929 32.4349 231.619 32.1113C231.314 31.7878 231.079 31.4072 230.915 30.9697C230.751 30.5322 230.669 30.0605 230.669 29.5547V29.2812C230.669 28.7025 230.753 28.1784 230.922 27.709C231.09 27.2396 231.325 26.8385 231.626 26.5059C231.927 26.1686 232.282 25.9111 232.692 25.7334C233.103 25.5557 233.547 25.4668 234.025 25.4668C234.554 25.4668 235.017 25.5557 235.413 25.7334C235.81 25.9111 236.138 26.1618 236.397 26.4854C236.662 26.8044 236.858 27.1849 236.985 27.627C237.118 28.069 237.184 28.5566 237.184 29.0898V29.7939H231.469V28.6113H235.557V28.4814C235.548 28.1852 235.488 27.9072 235.379 27.6475C235.274 27.3877 235.112 27.1781 234.894 27.0186C234.675 26.859 234.383 26.7793 234.019 26.7793C233.745 26.7793 233.501 26.8385 233.287 26.957C233.077 27.071 232.902 27.2373 232.761 27.4561C232.619 27.6748 232.51 27.9391 232.433 28.249C232.36 28.5544 232.323 28.8984 232.323 29.2812V29.5547C232.323 29.8783 232.367 30.179 232.453 30.457C232.544 30.7305 232.676 30.9697 232.85 31.1748C233.023 31.3799 233.232 31.5417 233.479 31.6602C233.725 31.7741 234.005 31.8311 234.319 31.8311C234.716 31.8311 235.069 31.7513 235.379 31.5918C235.689 31.4323 235.958 31.2067 236.186 30.915L237.054 31.7559C236.894 31.9883 236.687 32.2116 236.432 32.4258C236.176 32.6354 235.864 32.8063 235.495 32.9385C235.131 33.0706 234.707 33.1367 234.224 33.1367ZM248.554 31.6396V33H243.556V31.6396H248.554ZM244.035 23.0469V33H242.319V23.0469H244.035ZM251.579 25.6035V33H249.925V25.6035H251.579ZM249.816 23.6621C249.816 23.4115 249.898 23.2041 250.062 23.04C250.23 22.8714 250.463 22.7871 250.759 22.7871C251.051 22.7871 251.281 22.8714 251.449 23.04C251.618 23.2041 251.702 23.4115 251.702 23.6621C251.702 23.9082 251.618 24.1133 251.449 24.2773C251.281 24.4414 251.051 24.5234 250.759 24.5234C250.463 24.5234 250.23 24.4414 250.062 24.2773C249.898 24.1133 249.816 23.9082 249.816 23.6621ZM257.633 30.9971C257.633 30.833 257.592 30.6849 257.51 30.5527C257.428 30.416 257.271 30.293 257.039 30.1836C256.811 30.0742 256.474 29.974 256.027 29.8828C255.635 29.7962 255.275 29.6937 254.947 29.5752C254.623 29.4521 254.345 29.304 254.113 29.1309C253.88 28.9577 253.7 28.7526 253.573 28.5156C253.445 28.2786 253.381 28.0052 253.381 27.6953C253.381 27.3945 253.448 27.1097 253.58 26.8408C253.712 26.5719 253.901 26.335 254.147 26.1299C254.393 25.9248 254.692 25.763 255.043 25.6445C255.398 25.526 255.795 25.4668 256.232 25.4668C256.852 25.4668 257.383 25.5716 257.825 25.7812C258.271 25.9863 258.613 26.2666 258.85 26.6221C259.087 26.973 259.206 27.3695 259.206 27.8115H257.558C257.558 27.6156 257.508 27.4333 257.408 27.2646C257.312 27.0915 257.166 26.9525 256.97 26.8477C256.774 26.7383 256.528 26.6836 256.232 26.6836C255.949 26.6836 255.715 26.7292 255.528 26.8203C255.346 26.9069 255.209 27.0208 255.118 27.1621C255.031 27.3034 254.988 27.4583 254.988 27.627C254.988 27.75 255.011 27.8617 255.056 27.9619C255.106 28.0576 255.188 28.1465 255.302 28.2285C255.416 28.306 255.571 28.3789 255.767 28.4473C255.968 28.5156 256.218 28.5817 256.519 28.6455C257.084 28.764 257.57 28.9167 257.975 29.1035C258.385 29.2858 258.7 29.5228 258.919 29.8145C259.137 30.1016 259.247 30.4661 259.247 30.9082C259.247 31.2363 259.176 31.5371 259.035 31.8105C258.898 32.0794 258.698 32.3141 258.433 32.5146C258.169 32.7106 257.852 32.8633 257.483 32.9727C257.118 33.082 256.708 33.1367 256.253 33.1367C255.583 33.1367 255.015 33.0182 254.55 32.7812C254.086 32.5397 253.732 32.2321 253.491 31.8584C253.254 31.4801 253.135 31.0882 253.135 30.6826H254.728C254.746 30.988 254.831 31.2318 254.981 31.4141C255.136 31.5918 255.327 31.7217 255.555 31.8037C255.788 31.8812 256.027 31.9199 256.273 31.9199C256.569 31.9199 256.818 31.8812 257.018 31.8037C257.219 31.7217 257.371 31.6123 257.476 31.4756C257.581 31.3343 257.633 31.1748 257.633 30.9971ZM264.18 25.6035V26.8066H260.01V25.6035H264.18ZM261.213 23.792H262.86V30.9561C262.86 31.1839 262.892 31.3594 262.956 31.4824C263.024 31.6009 263.118 31.6807 263.236 31.7217C263.355 31.7627 263.494 31.7832 263.653 31.7832C263.767 31.7832 263.877 31.7764 263.981 31.7627C264.086 31.749 264.171 31.7354 264.234 31.7217L264.241 32.9795C264.104 33.0205 263.945 33.057 263.763 33.0889C263.585 33.1208 263.38 33.1367 263.147 33.1367C262.769 33.1367 262.434 33.0706 262.143 32.9385C261.851 32.8018 261.623 32.5807 261.459 32.2754C261.295 31.9701 261.213 31.5645 261.213 31.0586V23.792Z" fill="#65558F"/>
</g>
<defs>
<clipPath id="clip0_120_3659">
<rect width="285" height="56" rx="16" fill="white"/>
</clipPath>
</defs>
</svg>
