<svg width="113" height="56" viewBox="0 0 113 56" fill="none" xmlns="http://www.w3.org/2000/svg">
<g clip-path="url(#clip0_120_2671)">
<rect width="113" height="56" rx="16" fill="#ECE6F0"/>
<g clip-path="url(#clip1_120_2671)">
<path d="M22 35C22 36.1 22.9 37 24 37H32C33.1 37 34 36.1 34 35V23H22V35ZM24.46 27.88L25.87 26.47L28 28.59L30.12 26.47L31.53 27.88L29.41 30L31.53 32.12L30.12 33.53L28 31.41L25.88 33.53L24.47 32.12L26.59 30L24.46 27.88ZM31.5 20L30.5 19H25.5L24.5 20H21V22H35V20H31.5Z" fill="#65558F"/>
</g>
<path d="M56.2061 33H54.0801L54.0938 31.6396H56.2061C56.8213 31.6396 57.3363 31.5052 57.751 31.2363C58.1702 30.9674 58.4847 30.5824 58.6943 30.0811C58.9085 29.5798 59.0156 28.9827 59.0156 28.29V27.75C59.0156 27.2122 58.9541 26.736 58.8311 26.3213C58.7126 25.9066 58.5348 25.5579 58.2979 25.2754C58.0654 24.9928 57.7783 24.7786 57.4365 24.6328C57.0993 24.487 56.7096 24.4141 56.2676 24.4141H54.0391V23.0469H56.2676C56.9284 23.0469 57.5322 23.1585 58.0791 23.3818C58.626 23.6006 59.0977 23.9173 59.4941 24.332C59.8952 24.7467 60.2028 25.2435 60.417 25.8223C60.6312 26.401 60.7383 27.0482 60.7383 27.7637V28.29C60.7383 29.0055 60.6312 29.6527 60.417 30.2314C60.2028 30.8102 59.8952 31.307 59.4941 31.7217C59.0931 32.1318 58.6146 32.4486 58.0586 32.6719C57.5072 32.8906 56.8896 33 56.2061 33ZM55.0303 23.0469V33H53.3145V23.0469H55.0303ZM65.6576 33.1367C65.1107 33.1367 64.6163 33.0479 64.1742 32.8701C63.7367 32.6878 63.363 32.4349 63.0531 32.1113C62.7478 31.7878 62.5131 31.4072 62.349 30.9697C62.185 30.5322 62.1029 30.0605 62.1029 29.5547V29.2812C62.1029 28.7025 62.1872 28.1784 62.3559 27.709C62.5245 27.2396 62.7592 26.8385 63.06 26.5059C63.3607 26.1686 63.7162 25.9111 64.1264 25.7334C64.5365 25.5557 64.9809 25.4668 65.4594 25.4668C65.988 25.4668 66.4506 25.5557 66.8471 25.7334C67.2436 25.9111 67.5717 26.1618 67.8314 26.4854C68.0958 26.8044 68.2917 27.1849 68.4193 27.627C68.5515 28.069 68.6176 28.5566 68.6176 29.0898V29.7939H62.9027V28.6113H66.9906V28.4814C66.9815 28.1852 66.9223 27.9072 66.8129 27.6475C66.7081 27.3877 66.5463 27.1781 66.3275 27.0186C66.1088 26.859 65.8171 26.7793 65.4525 26.7793C65.1791 26.7793 64.9353 26.8385 64.7211 26.957C64.5115 27.071 64.336 27.2373 64.1947 27.4561C64.0535 27.6748 63.9441 27.9391 63.8666 28.249C63.7937 28.5544 63.7572 28.8984 63.7572 29.2812V29.5547C63.7572 29.8783 63.8005 30.179 63.8871 30.457C63.9783 30.7305 64.1104 30.9697 64.2836 31.1748C64.4568 31.3799 64.6664 31.5417 64.9125 31.6602C65.1586 31.7741 65.4389 31.8311 65.7533 31.8311C66.1498 31.8311 66.503 31.7513 66.8129 31.5918C67.1228 31.4323 67.3917 31.2067 67.6195 30.915L68.4877 31.7559C68.3282 31.9883 68.1208 32.2116 67.8656 32.4258C67.6104 32.6354 67.2982 32.8063 66.9291 32.9385C66.5645 33.0706 66.1407 33.1367 65.6576 33.1367ZM71.7664 22.5V33H70.1121V22.5H71.7664ZM76.9318 33.1367C76.385 33.1367 75.8905 33.0479 75.4484 32.8701C75.0109 32.6878 74.6372 32.4349 74.3273 32.1113C74.022 31.7878 73.7873 31.4072 73.6232 30.9697C73.4592 30.5322 73.3771 30.0605 73.3771 29.5547V29.2812C73.3771 28.7025 73.4615 28.1784 73.6301 27.709C73.7987 27.2396 74.0334 26.8385 74.3342 26.5059C74.635 26.1686 74.9904 25.9111 75.4006 25.7334C75.8107 25.5557 76.2551 25.4668 76.7336 25.4668C77.2622 25.4668 77.7248 25.5557 78.1213 25.7334C78.5178 25.9111 78.8459 26.1618 79.1057 26.4854C79.37 26.8044 79.5659 27.1849 79.6936 27.627C79.8257 28.069 79.8918 28.5566 79.8918 29.0898V29.7939H74.177V28.6113H78.2648V28.4814C78.2557 28.1852 78.1965 27.9072 78.0871 27.6475C77.9823 27.3877 77.8205 27.1781 77.6018 27.0186C77.383 26.859 77.0913 26.7793 76.7268 26.7793C76.4533 26.7793 76.2095 26.8385 75.9953 26.957C75.7857 27.071 75.6102 27.2373 75.4689 27.4561C75.3277 27.6748 75.2183 27.9391 75.1408 28.249C75.0679 28.5544 75.0314 28.8984 75.0314 29.2812V29.5547C75.0314 29.8783 75.0747 30.179 75.1613 30.457C75.2525 30.7305 75.3846 30.9697 75.5578 31.1748C75.731 31.3799 75.9406 31.5417 76.1867 31.6602C76.4328 31.7741 76.7131 31.8311 77.0275 31.8311C77.424 31.8311 77.7772 31.7513 78.0871 31.5918C78.397 31.4323 78.6659 31.2067 78.8937 30.915L79.7619 31.7559C79.6024 31.9883 79.3951 32.2116 79.1398 32.4258C78.8846 32.6354 78.5725 32.8063 78.2033 32.9385C77.8387 33.0706 77.4149 33.1367 76.9318 33.1367ZM84.6676 25.6035V26.8066H80.4977V25.6035H84.6676ZM81.7008 23.792H83.3482V30.9561C83.3482 31.1839 83.3801 31.3594 83.4439 31.4824C83.5123 31.6009 83.6057 31.6807 83.7242 31.7217C83.8427 31.7627 83.9817 31.7832 84.1412 31.7832C84.2551 31.7832 84.3645 31.7764 84.4693 31.7627C84.5742 31.749 84.6585 31.7354 84.7223 31.7217L84.7291 32.9795C84.5924 33.0205 84.4329 33.057 84.2506 33.0889C84.0729 33.1208 83.8678 33.1367 83.6354 33.1367C83.2571 33.1367 82.9221 33.0706 82.6305 32.9385C82.3388 32.8018 82.1109 32.5807 81.9469 32.2754C81.7828 31.9701 81.7008 31.5645 81.7008 31.0586V23.792ZM89.2998 33.1367C88.7529 33.1367 88.2585 33.0479 87.8164 32.8701C87.3789 32.6878 87.0052 32.4349 86.6953 32.1113C86.39 31.7878 86.1553 31.4072 85.9912 30.9697C85.8271 30.5322 85.7451 30.0605 85.7451 29.5547V29.2812C85.7451 28.7025 85.8294 28.1784 85.998 27.709C86.1667 27.2396 86.4014 26.8385 86.7021 26.5059C87.0029 26.1686 87.3584 25.9111 87.7686 25.7334C88.1787 25.5557 88.623 25.4668 89.1016 25.4668C89.6302 25.4668 90.0928 25.5557 90.4893 25.7334C90.8857 25.9111 91.2139 26.1618 91.4736 26.4854C91.738 26.8044 91.9339 27.1849 92.0615 27.627C92.1937 28.069 92.2598 28.5566 92.2598 29.0898V29.7939H86.5449V28.6113H90.6328V28.4814C90.6237 28.1852 90.5645 27.9072 90.4551 27.6475C90.3503 27.3877 90.1885 27.1781 89.9697 27.0186C89.751 26.859 89.4593 26.7793 89.0947 26.7793C88.8213 26.7793 88.5775 26.8385 88.3633 26.957C88.1536 27.071 87.9782 27.2373 87.8369 27.4561C87.6956 27.6748 87.5863 27.9391 87.5088 28.249C87.4359 28.5544 87.3994 28.8984 87.3994 29.2812V29.5547C87.3994 29.8783 87.4427 30.179 87.5293 30.457C87.6204 30.7305 87.7526 30.9697 87.9258 31.1748C88.099 31.3799 88.3086 31.5417 88.5547 31.6602C88.8008 31.7741 89.0811 31.8311 89.3955 31.8311C89.792 31.8311 90.1452 31.7513 90.4551 31.5918C90.765 31.4323 91.0339 31.2067 91.2617 30.915L92.1299 31.7559C91.9704 31.9883 91.763 32.2116 91.5078 32.4258C91.2526 32.6354 90.9404 32.8063 90.5713 32.9385C90.2067 33.0706 89.7829 33.1367 89.2998 33.1367Z" fill="#65558F"/>
</g>
<defs>
<clipPath id="clip0_120_2671">
<rect width="113" height="56" rx="16" fill="white"/>
</clipPath>
<clipPath id="clip1_120_2671">
<rect width="24" height="24" fill="white" transform="translate(16 16)"/>
</clipPath>
</defs>
</svg>
