<svg width="97" height="56" viewBox="0 0 97 56" fill="none" xmlns="http://www.w3.org/2000/svg">
<g clip-path="url(#clip0_61_1357)">
<rect width="97" height="56" rx="16" fill="#ECE6F0"/>
<path d="M21 35H22.425L32.2 25.225L30.775 23.8L21 33.575V35ZM19 37V32.75L32.2 19.575C32.4 19.3917 32.6208 19.25 32.8625 19.15C33.1042 19.05 33.3583 19 33.625 19C33.8917 19 34.15 19.05 34.4 19.15C34.65 19.25 34.8667 19.4 35.05 19.6L36.425 21C36.625 21.1833 36.7708 21.4 36.8625 21.65C36.9542 21.9 37 22.15 37 22.4C37 22.6667 36.9542 22.9208 36.8625 23.1625C36.7708 23.4042 36.625 23.625 36.425 23.825L23.25 37H19ZM31.475 24.525L30.775 23.8L32.2 25.225L31.475 24.525Z" fill="#65558F"/>
<path d="M59.9271 31.6396V33H54.643V31.6396H59.9271ZM55.1283 23.0469V33H53.4125V23.0469H55.1283ZM59.2367 27.2031V28.543H54.643V27.2031H59.2367ZM59.893 23.0469V24.4141H54.643V23.0469H59.893ZM65.6395 31.4688V22.5H67.2938V33H65.7967L65.6395 31.4688ZM60.827 29.3838V29.2402C60.827 28.6797 60.893 28.1693 61.0252 27.709C61.1574 27.2441 61.3488 26.8454 61.5994 26.5127C61.8501 26.1755 62.1554 25.918 62.5154 25.7402C62.8755 25.5579 63.2811 25.4668 63.7322 25.4668C64.1788 25.4668 64.5708 25.5534 64.908 25.7266C65.2452 25.8997 65.5324 26.1481 65.7693 26.4717C66.0063 26.7907 66.1954 27.1735 66.3367 27.6201C66.478 28.0622 66.5783 28.5544 66.6375 29.0967V29.5547C66.5783 30.0833 66.478 30.5664 66.3367 31.0039C66.1954 31.4414 66.0063 31.8197 65.7693 32.1387C65.5324 32.4577 65.243 32.7038 64.9012 32.877C64.5639 33.0501 64.1697 33.1367 63.7186 33.1367C63.2719 33.1367 62.8686 33.0433 62.5086 32.8564C62.1531 32.6696 61.8501 32.4076 61.5994 32.0703C61.3488 31.7331 61.1574 31.3366 61.0252 30.8809C60.893 30.4206 60.827 29.9215 60.827 29.3838ZM62.4744 29.2402V29.3838C62.4744 29.721 62.504 30.0355 62.5633 30.3271C62.6271 30.6188 62.7251 30.8763 62.8572 31.0996C62.9894 31.3184 63.1603 31.4915 63.3699 31.6191C63.5841 31.7422 63.8393 31.8037 64.1355 31.8037C64.5092 31.8037 64.8169 31.7217 65.0584 31.5576C65.2999 31.3936 65.4891 31.1725 65.6258 30.8945C65.7671 30.612 65.8628 30.2975 65.9129 29.9512V28.7139C65.8855 28.445 65.8286 28.1943 65.742 27.9619C65.66 27.7295 65.5483 27.5267 65.407 27.3535C65.2658 27.1758 65.0903 27.0391 64.8807 26.9434C64.6756 26.8431 64.4318 26.793 64.1492 26.793C63.8484 26.793 63.5932 26.8568 63.3836 26.9844C63.174 27.112 63.0008 27.2874 62.8641 27.5107C62.7319 27.734 62.6339 27.9938 62.5701 28.29C62.5063 28.5863 62.4744 28.903 62.4744 29.2402ZM70.8801 25.6035V33H69.2258V25.6035H70.8801ZM69.1164 23.6621C69.1164 23.4115 69.1984 23.2041 69.3625 23.04C69.5311 22.8714 69.7635 22.7871 70.0598 22.7871C70.3514 22.7871 70.5816 22.8714 70.7502 23.04C70.9188 23.2041 71.0031 23.4115 71.0031 23.6621C71.0031 23.9082 70.9188 24.1133 70.7502 24.2773C70.5816 24.4414 70.3514 24.5234 70.0598 24.5234C69.7635 24.5234 69.5311 24.4414 69.3625 24.2773C69.1984 24.1133 69.1164 23.9082 69.1164 23.6621ZM76.1754 25.6035V26.8066H72.0055V25.6035H76.1754ZM73.2086 23.792H74.8561V30.9561C74.8561 31.1839 74.888 31.3594 74.9518 31.4824C75.0201 31.6009 75.1135 31.6807 75.232 31.7217C75.3505 31.7627 75.4895 31.7832 75.649 31.7832C75.763 31.7832 75.8723 31.7764 75.9771 31.7627C76.082 31.749 76.1663 31.7354 76.2301 31.7217L76.2369 32.9795C76.1002 33.0205 75.9407 33.057 75.7584 33.0889C75.5807 33.1208 75.3756 33.1367 75.1432 33.1367C74.7649 33.1367 74.4299 33.0706 74.1383 32.9385C73.8466 32.8018 73.6187 32.5807 73.4547 32.2754C73.2906 31.9701 73.2086 31.5645 73.2086 31.0586V23.792Z" fill="#65558F"/>
</g>
<defs>
<clipPath id="clip0_61_1357">
<rect width="97" height="56" rx="16" fill="white"/>
</clipPath>
</defs>
</svg>
